 http://img441.imageshack.us/img441/3281/sgdy.jpg


Genre : Action / Crime / Thriller

Plot : Infamous London gangster cousins, Micky Mannock and Ray Collishaw, are at the top of the food chain, when their world is turned upside down as they lose a shipment of the Russian Mafia's cocaine in rough seas. Set in London, Amsterdam and Berlin, the story races across Europe at breakneck speed as Micky and Ray attempt to stay one step ahead of the Police. Can they pull off a daring diamond heist in time to put things right and retire to a "legitimate" way of life.


Format                                 : AVI 
Format/Info                              : Audio Video Interleave 
File size                                : 699 MiB 
Duration                               : 1h 44mn 
Overall bit rate mode                    : Variable 
Overall bit rate                       : 937 Kbps 

Video 
ID                                     : 0 
Format                                 : MPEG-4 Visual 
Format profile                         : Advanced Simple@L5 
Format settings, BVOP                    : 1 
Format settings, QPel                    : No 
Format settings, GMC                   : No warppoints 
Format settings, Matrix                  : Custom 
Codec ID                               : XVID 
Codec ID/Hint                            : XviD 
Duration                               : 1h 44mn 
Bit rate                               : 812 Kbps 
Width                                    : 640 pixels 
Height                                 : 272 pixels 
Display aspect ratio                   : 2.35:1 
Frame rate                             : 25.000 fps 
Color space                              : YUV 
Chroma subsampling                     : 4:2:0 
Bit depth                                : 8 bits 
Scan type                                : Progressive 
Compression mode                       : Lossy 
Bits/(Pixel*Frame)                     : 0.187 
Stream size                              : 607 MiB (87%) 

Audio 
ID                                     : 1 
Format                                 : MPEG Audio 
Format version                         : Version 1 
Format profile                         : Layer 3 
Mode                                   : Joint stereo 
Mode extension                         : MS Stereo 
Codec ID                               : 55 
Codec ID/Hint                            : MP3 
Duration                               : 1h 44mn 
Bit rate mode                            : Variable 
Bit rate                               : 112 Kbps 
Nominal bit rate                       : 128 Kbps 
Channel(s)                             : 2 channels 
Sampling rate                            : 48.0 KHz 
Compression mode                       : Lossy 
Stream size                              : 83.2 MiB (12%) 
Alignment                                : Aligned on interleaves 
Interleave, duration                   : 24 ms (0.60 video frame) 
Interleave, preload duration           : 165 ms
 
http://www.imdb.com/title/tt1329232/


 
http://img43.imageshack.us/img43/2853/vlcsnap2012122311h41m39.png 
http://img405.imageshack.us/img405/8688/vlcsnap2012122311h42m07.png 
http://img821.imageshack.us/img821/2195/vlcsnap2012122311h41m00.png 
http://img202.imageshack.us/img202/8763/vlcsnap2012122311h41m29.png